# xmcd
#
# Track frame offsets:
#	152
#	9613
#	19163
#	30184
#	39281
#	48393
#	57351
#	67159
#	76159
#	88517
#	97823
#	105751
#	114026
#	121772
#	130341
#	140093
#	149636
#	159194
#	168458
#	177876
#	186055
#	195486
#	204138
#
# Disc length: 2825 seconds
#
# Revision: 2
# Processed by: cddbd v1.4PL0 Copyright (c) Steve Scherf et al.
# Submitted via: audiograbber 1.81.00
#
DISCID=1d0b0717
DTITLE=Hank Thompson - Hank World
DYEAR=1999
DGENRE=Country
TTITLE0=New Deal of Love
TTITLE1=A Lonely Heart Knows
TTITLE2=Don't Take It Out On Me
TTITLE3=Rub-A-Dub-Dub
TTITLE4=Simple Simon
TTITLE5=If Lovin' You Is Wrong
TTITLE6=When You're Lovin' You're Livin'
TTITLE7=Westphalia Waltz
TTITLE8=I'm Tired of Pretending
TTITLE9=I'm a Fool to Fool Around With You
TTITLE10=My Front Door Is Open
TTITLE11=California Women
TTITLE12=I'll Be Your Sweetheart for a Day
TTITLE13=Don't Be That Way
TTITLE14=Yesterday's Mail
TTITLE15=I Find You're Cheatin' on Me
TTITLE16=Standin' on the Outside
TTITLE17=Hangover Heart
TTITLE18=Tippin' In
TTITLE19=The Grass Looks Greener Over Yonder
TTITLE20=Texas Playboy Rag
TTITLE21=Humpty Dumpty Heart
TTITLE22=When God Calls His Children Home
EXTD=
EXTT0=
EXTT1=
EXTT2=
EXTT3=
EXTT4=
EXTT5=
EXTT6=
EXTT7=
EXTT8=
EXTT9=
EXTT10=
EXTT11=
EXTT12=
EXTT13=
EXTT14=
EXTT15=
EXTT16=
EXTT17=
EXTT18=
EXTT19=
EXTT20=
EXTT21=
EXTT22=
PLAYORDER=
